<?xml version="1.0" encoding="utf-8" standalone="no"?>
<!DOCTYPE svg PUBLIC "-//W3C//DTD SVG 1.1//EN"
  "http://www.w3.org/Graphics/SVG/1.1/DTD/svg11.dtd">
<!-- Created with matplotlib (https://matplotlib.org/) -->
<svg height="360pt" version="1.1" viewBox="0 0 576 360" width="576pt" xmlns="http://www.w3.org/2000/svg" xmlns:xlink="http://www.w3.org/1999/xlink">
 <metadata>
  <rdf:RDF xmlns:cc="http://creativecommons.org/ns#" xmlns:dc="http://purl.org/dc/elements/1.1/" xmlns:rdf="http://www.w3.org/1999/02/22-rdf-syntax-ns#">
   <cc:Work>
    <dc:type rdf:resource="http://purl.org/dc/dcmitype/StillImage"/>
    <dc:date>2024-09-09T20:12:19.251450</dc:date>
    <dc:format>image/svg+xml</dc:format>
    <dc:creator>
     <cc:Agent>
      <dc:title>Matplotlib v3.3.4, https://matplotlib.org/</dc:title>
     </cc:Agent>
    </dc:creator>
   </cc:Work>
  </rdf:RDF>
 </metadata>
 <defs>
  <style type="text/css">*{stroke-linecap:butt;stroke-linejoin:round;}</style>
 </defs>
 <g id="figure_1">
  <g id="patch_1">
   <path d="M 0 360 
L 576 360 
L 576 0 
L 0 0 
z
" style="fill:#ffffff;"/>
  </g>
  <g id="axes_1">
   <g id="patch_2">
    <path d="M 72 169.2 
L 518.4 169.2 
L 518.4 43.2 
L 72 43.2 
z
" style="fill:#ffffff;"/>
   </g>
   <g id="matplotlib.axis_1">
    <g id="xtick_1">
     <g id="line2d_1">
      <defs>
       <path d="M 0 0 
L 0 3.5 
" id="mf37393b1fc" style="stroke:#000000;stroke-width:0.8;"/>
      </defs>
      <g>
       <use style="stroke:#000000;stroke-width:0.8;" x="92.290909" xlink:href="#mf37393b1fc" y="169.2"/>
      </g>
     </g>
     <g id="text_1">
      <!-- 3 -->
      <g transform="translate(89.109659 183.798437)scale(0.1 -0.1)">
       <defs>
        <path d="M 40.578125 39.3125 
Q 47.65625 37.796875 51.625 33 
Q 55.609375 28.21875 55.609375 21.1875 
Q 55.609375 10.40625 48.1875 4.484375 
Q 40.765625 -1.421875 27.09375 -1.421875 
Q 22.515625 -1.421875 17.65625 -0.515625 
Q 12.796875 0.390625 7.625 2.203125 
L 7.625 11.71875 
Q 11.71875 9.328125 16.59375 8.109375 
Q 21.484375 6.890625 26.8125 6.890625 
Q 36.078125 6.890625 40.9375 10.546875 
Q 45.796875 14.203125 45.796875 21.1875 
Q 45.796875 27.640625 41.28125 31.265625 
Q 36.765625 34.90625 28.71875 34.90625 
L 20.21875 34.90625 
L 20.21875 43.015625 
L 29.109375 43.015625 
Q 36.375 43.015625 40.234375 45.921875 
Q 44.09375 48.828125 44.09375 54.296875 
Q 44.09375 59.90625 40.109375 62.90625 
Q 36.140625 65.921875 28.71875 65.921875 
Q 24.65625 65.921875 20.015625 65.03125 
Q 15.375 64.15625 9.8125 62.3125 
L 9.8125 71.09375 
Q 15.4375 72.65625 20.34375 73.4375 
Q 25.25 74.21875 29.59375 74.21875 
Q 40.828125 74.21875 47.359375 69.109375 
Q 53.90625 64.015625 53.90625 55.328125 
Q 53.90625 49.265625 50.4375 45.09375 
Q 46.96875 40.921875 40.578125 39.3125 
z
" id="DejaVuSans-51"/>
       </defs>
       <use xlink:href="#DejaVuSans-51"/>
      </g>
     </g>
    </g>
    <g id="xtick_2">
     <g id="line2d_2">
      <g>
       <use style="stroke:#000000;stroke-width:0.8;" x="150.264935" xlink:href="#mf37393b1fc" y="169.2"/>
      </g>
     </g>
     <g id="text_2">
      <!-- 4 -->
      <g transform="translate(147.083685 183.798437)scale(0.1 -0.1)">
       <defs>
        <path d="M 37.796875 64.3125 
L 12.890625 25.390625 
L 37.796875 25.390625 
z
M 35.203125 72.90625 
L 47.609375 72.90625 
L 47.609375 25.390625 
L 58.015625 25.390625 
L 58.015625 17.1875 
L 47.609375 17.1875 
L 47.609375 0 
L 37.796875 0 
L 37.796875 17.1875 
L 4.890625 17.1875 
L 4.890625 26.703125 
z
" id="DejaVuSans-52"/>
       </defs>
       <use xlink:href="#DejaVuSans-52"/>
      </g>
     </g>
    </g>
    <g id="xtick_3">
     <g id="line2d_3">
      <g>
       <use style="stroke:#000000;stroke-width:0.8;" x="208.238961" xlink:href="#mf37393b1fc" y="169.2"/>
      </g>
     </g>
     <g id="text_3">
      <!-- 5 -->
      <g transform="translate(205.057711 183.798437)scale(0.1 -0.1)">
       <defs>
        <path d="M 10.796875 72.90625 
L 49.515625 72.90625 
L 49.515625 64.59375 
L 19.828125 64.59375 
L 19.828125 46.734375 
Q 21.96875 47.46875 24.109375 47.828125 
Q 26.265625 48.1875 28.421875 48.1875 
Q 40.625 48.1875 47.75 41.5 
Q 54.890625 34.8125 54.890625 23.390625 
Q 54.890625 11.625 47.5625 5.09375 
Q 40.234375 -1.421875 26.90625 -1.421875 
Q 22.3125 -1.421875 17.546875 -0.640625 
Q 12.796875 0.140625 7.71875 1.703125 
L 7.71875 11.625 
Q 12.109375 9.234375 16.796875 8.0625 
Q 21.484375 6.890625 26.703125 6.890625 
Q 35.15625 6.890625 40.078125 11.328125 
Q 45.015625 15.765625 45.015625 23.390625 
Q 45.015625 31 40.078125 35.4375 
Q 35.15625 39.890625 26.703125 39.890625 
Q 22.75 39.890625 18.8125 39.015625 
Q 14.890625 38.140625 10.796875 36.28125 
z
" id="DejaVuSans-53"/>
       </defs>
       <use xlink:href="#DejaVuSans-53"/>
      </g>
     </g>
    </g>
    <g id="xtick_4">
     <g id="line2d_4">
      <g>
       <use style="stroke:#000000;stroke-width:0.8;" x="266.212987" xlink:href="#mf37393b1fc" y="169.2"/>
      </g>
     </g>
     <g id="text_4">
      <!-- 6 -->
      <g transform="translate(263.031737 183.798437)scale(0.1 -0.1)">
       <defs>
        <path d="M 33.015625 40.375 
Q 26.375 40.375 22.484375 35.828125 
Q 18.609375 31.296875 18.609375 23.390625 
Q 18.609375 15.53125 22.484375 10.953125 
Q 26.375 6.390625 33.015625 6.390625 
Q 39.65625 6.390625 43.53125 10.953125 
Q 47.40625 15.53125 47.40625 23.390625 
Q 47.40625 31.296875 43.53125 35.828125 
Q 39.65625 40.375 33.015625 40.375 
z
M 52.59375 71.296875 
L 52.59375 62.3125 
Q 48.875 64.0625 45.09375 64.984375 
Q 41.3125 65.921875 37.59375 65.921875 
Q 27.828125 65.921875 22.671875 59.328125 
Q 17.53125 52.734375 16.796875 39.40625 
Q 19.671875 43.65625 24.015625 45.921875 
Q 28.375 48.1875 33.59375 48.1875 
Q 44.578125 48.1875 50.953125 41.515625 
Q 57.328125 34.859375 57.328125 23.390625 
Q 57.328125 12.15625 50.6875 5.359375 
Q 44.046875 -1.421875 33.015625 -1.421875 
Q 20.359375 -1.421875 13.671875 8.265625 
Q 6.984375 17.96875 6.984375 36.375 
Q 6.984375 53.65625 15.1875 63.9375 
Q 23.390625 74.21875 37.203125 74.21875 
Q 40.921875 74.21875 44.703125 73.484375 
Q 48.484375 72.75 52.59375 71.296875 
z
" id="DejaVuSans-54"/>
       </defs>
       <use xlink:href="#DejaVuSans-54"/>
      </g>
     </g>
    </g>
    <g id="xtick_5">
     <g id="line2d_5">
      <g>
       <use style="stroke:#000000;stroke-width:0.8;" x="324.187013" xlink:href="#mf37393b1fc" y="169.2"/>
      </g>
     </g>
     <g id="text_5">
      <!-- 7 -->
      <g transform="translate(321.005763 183.798437)scale(0.1 -0.1)">
       <defs>
        <path d="M 8.203125 72.90625 
L 55.078125 72.90625 
L 55.078125 68.703125 
L 28.609375 0 
L 18.3125 0 
L 43.21875 64.59375 
L 8.203125 64.59375 
z
" id="DejaVuSans-55"/>
       </defs>
       <use xlink:href="#DejaVuSans-55"/>
      </g>
     </g>
    </g>
    <g id="xtick_6">
     <g id="line2d_6">
      <g>
       <use style="stroke:#000000;stroke-width:0.8;" x="382.161039" xlink:href="#mf37393b1fc" y="169.2"/>
      </g>
     </g>
     <g id="text_6">
      <!-- 8 -->
      <g transform="translate(378.979789 183.798437)scale(0.1 -0.1)">
       <defs>
        <path d="M 31.78125 34.625 
Q 24.75 34.625 20.71875 30.859375 
Q 16.703125 27.09375 16.703125 20.515625 
Q 16.703125 13.921875 20.71875 10.15625 
Q 24.75 6.390625 31.78125 6.390625 
Q 38.8125 6.390625 42.859375 10.171875 
Q 46.921875 13.96875 46.921875 20.515625 
Q 46.921875 27.09375 42.890625 30.859375 
Q 38.875 34.625 31.78125 34.625 
z
M 21.921875 38.8125 
Q 15.578125 40.375 12.03125 44.71875 
Q 8.5 49.078125 8.5 55.328125 
Q 8.5 64.0625 14.71875 69.140625 
Q 20.953125 74.21875 31.78125 74.21875 
Q 42.671875 74.21875 48.875 69.140625 
Q 55.078125 64.0625 55.078125 55.328125 
Q 55.078125 49.078125 51.53125 44.71875 
Q 48 40.375 41.703125 38.8125 
Q 48.828125 37.15625 52.796875 32.3125 
Q 56.78125 27.484375 56.78125 20.515625 
Q 56.78125 9.90625 50.3125 4.234375 
Q 43.84375 -1.421875 31.78125 -1.421875 
Q 19.734375 -1.421875 13.25 4.234375 
Q 6.78125 9.90625 6.78125 20.515625 
Q 6.78125 27.484375 10.78125 32.3125 
Q 14.796875 37.15625 21.921875 38.8125 
z
M 18.3125 54.390625 
Q 18.3125 48.734375 21.84375 45.5625 
Q 25.390625 42.390625 31.78125 42.390625 
Q 38.140625 42.390625 41.71875 45.5625 
Q 45.3125 48.734375 45.3125 54.390625 
Q 45.3125 60.0625 41.71875 63.234375 
Q 38.140625 66.40625 31.78125 66.40625 
Q 25.390625 66.40625 21.84375 63.234375 
Q 18.3125 60.0625 18.3125 54.390625 
z
" id="DejaVuSans-56"/>
       </defs>
       <use xlink:href="#DejaVuSans-56"/>
      </g>
     </g>
    </g>
    <g id="xtick_7">
     <g id="line2d_7">
      <g>
       <use style="stroke:#000000;stroke-width:0.8;" x="440.135065" xlink:href="#mf37393b1fc" y="169.2"/>
      </g>
     </g>
     <g id="text_7">
      <!-- 9 -->
      <g transform="translate(436.953815 183.798437)scale(0.1 -0.1)">
       <defs>
        <path d="M 10.984375 1.515625 
L 10.984375 10.5 
Q 14.703125 8.734375 18.5 7.8125 
Q 22.3125 6.890625 25.984375 6.890625 
Q 35.75 6.890625 40.890625 13.453125 
Q 46.046875 20.015625 46.78125 33.40625 
Q 43.953125 29.203125 39.59375 26.953125 
Q 35.25 24.703125 29.984375 24.703125 
Q 19.046875 24.703125 12.671875 31.3125 
Q 6.296875 37.9375 6.296875 49.421875 
Q 6.296875 60.640625 12.9375 67.421875 
Q 19.578125 74.21875 30.609375 74.21875 
Q 43.265625 74.21875 49.921875 64.515625 
Q 56.59375 54.828125 56.59375 36.375 
Q 56.59375 19.140625 48.40625 8.859375 
Q 40.234375 -1.421875 26.421875 -1.421875 
Q 22.703125 -1.421875 18.890625 -0.6875 
Q 15.09375 0.046875 10.984375 1.515625 
z
M 30.609375 32.421875 
Q 37.25 32.421875 41.125 36.953125 
Q 45.015625 41.5 45.015625 49.421875 
Q 45.015625 57.28125 41.125 61.84375 
Q 37.25 66.40625 30.609375 66.40625 
Q 23.96875 66.40625 20.09375 61.84375 
Q 16.21875 57.28125 16.21875 49.421875 
Q 16.21875 41.5 20.09375 36.953125 
Q 23.96875 32.421875 30.609375 32.421875 
z
" id="DejaVuSans-57"/>
       </defs>
       <use xlink:href="#DejaVuSans-57"/>
      </g>
     </g>
    </g>
    <g id="xtick_8">
     <g id="line2d_8">
      <g>
       <use style="stroke:#000000;stroke-width:0.8;" x="498.109091" xlink:href="#mf37393b1fc" y="169.2"/>
      </g>
     </g>
     <g id="text_8">
      <!-- 10 -->
      <g transform="translate(491.746591 183.798437)scale(0.1 -0.1)">
       <defs>
        <path d="M 12.40625 8.296875 
L 28.515625 8.296875 
L 28.515625 63.921875 
L 10.984375 60.40625 
L 10.984375 69.390625 
L 28.421875 72.90625 
L 38.28125 72.90625 
L 38.28125 8.296875 
L 54.390625 8.296875 
L 54.390625 0 
L 12.40625 0 
z
" id="DejaVuSans-49"/>
        <path d="M 31.78125 66.40625 
Q 24.171875 66.40625 20.328125 58.90625 
Q 16.5 51.421875 16.5 36.375 
Q 16.5 21.390625 20.328125 13.890625 
Q 24.171875 6.390625 31.78125 6.390625 
Q 39.453125 6.390625 43.28125 13.890625 
Q 47.125 21.390625 47.125 36.375 
Q 47.125 51.421875 43.28125 58.90625 
Q 39.453125 66.40625 31.78125 66.40625 
z
M 31.78125 74.21875 
Q 44.046875 74.21875 50.515625 64.515625 
Q 56.984375 54.828125 56.984375 36.375 
Q 56.984375 17.96875 50.515625 8.265625 
Q 44.046875 -1.421875 31.78125 -1.421875 
Q 19.53125 -1.421875 13.0625 8.265625 
Q 6.59375 17.96875 6.59375 36.375 
Q 6.59375 54.828125 13.0625 64.515625 
Q 19.53125 74.21875 31.78125 74.21875 
z
" id="DejaVuSans-48"/>
       </defs>
       <use xlink:href="#DejaVuSans-49"/>
       <use x="63.623047" xlink:href="#DejaVuSans-48"/>
      </g>
     </g>
    </g>
   </g>
   <g id="matplotlib.axis_2">
    <g id="ytick_1">
     <g id="line2d_9">
      <defs>
       <path d="M 0 0 
L -3.5 0 
" id="md0726f375c" style="stroke:#000000;stroke-width:0.8;"/>
      </defs>
      <g>
       <use style="stroke:#000000;stroke-width:0.8;" x="72" xlink:href="#md0726f375c" y="169.2"/>
      </g>
     </g>
     <g id="text_9">
      <!-- −0.00010 -->
      <g transform="translate(15.267187 172.999219)scale(0.1 -0.1)">
       <defs>
        <path d="M 10.59375 35.5 
L 73.1875 35.5 
L 73.1875 27.203125 
L 10.59375 27.203125 
z
" id="DejaVuSans-8722"/>
        <path d="M 10.6875 12.40625 
L 21 12.40625 
L 21 0 
L 10.6875 0 
z
" id="DejaVuSans-46"/>
       </defs>
       <use xlink:href="#DejaVuSans-8722"/>
       <use x="83.789062" xlink:href="#DejaVuSans-48"/>
       <use x="147.412109" xlink:href="#DejaVuSans-46"/>
       <use x="179.199219" xlink:href="#DejaVuSans-48"/>
       <use x="242.822266" xlink:href="#DejaVuSans-48"/>
       <use x="306.445312" xlink:href="#DejaVuSans-48"/>
       <use x="370.068359" xlink:href="#DejaVuSans-49"/>
       <use x="433.691406" xlink:href="#DejaVuSans-48"/>
      </g>
     </g>
    </g>
    <g id="ytick_2">
     <g id="line2d_10">
      <g>
       <use style="stroke:#000000;stroke-width:0.8;" x="72" xlink:href="#md0726f375c" y="137.7"/>
      </g>
     </g>
     <g id="text_10">
      <!-- −0.00005 -->
      <g transform="translate(15.267187 141.499219)scale(0.1 -0.1)">
       <use xlink:href="#DejaVuSans-8722"/>
       <use x="83.789062" xlink:href="#DejaVuSans-48"/>
       <use x="147.412109" xlink:href="#DejaVuSans-46"/>
       <use x="179.199219" xlink:href="#DejaVuSans-48"/>
       <use x="242.822266" xlink:href="#DejaVuSans-48"/>
       <use x="306.445312" xlink:href="#DejaVuSans-48"/>
       <use x="370.068359" xlink:href="#DejaVuSans-48"/>
       <use x="433.691406" xlink:href="#DejaVuSans-53"/>
      </g>
     </g>
    </g>
    <g id="ytick_3">
     <g id="line2d_11">
      <g>
       <use style="stroke:#000000;stroke-width:0.8;" x="72" xlink:href="#md0726f375c" y="106.2"/>
      </g>
     </g>
     <g id="text_11">
      <!-- 0.00000 -->
      <g transform="translate(23.646875 109.999219)scale(0.1 -0.1)">
       <use xlink:href="#DejaVuSans-48"/>
       <use x="63.623047" xlink:href="#DejaVuSans-46"/>
       <use x="95.410156" xlink:href="#DejaVuSans-48"/>
       <use x="159.033203" xlink:href="#DejaVuSans-48"/>
       <use x="222.65625" xlink:href="#DejaVuSans-48"/>
       <use x="286.279297" xlink:href="#DejaVuSans-48"/>
       <use x="349.902344" xlink:href="#DejaVuSans-48"/>
      </g>
     </g>
    </g>
    <g id="ytick_4">
     <g id="line2d_12">
      <g>
       <use style="stroke:#000000;stroke-width:0.8;" x="72" xlink:href="#md0726f375c" y="74.7"/>
      </g>
     </g>
     <g id="text_12">
      <!-- 0.00005 -->
      <g transform="translate(23.646875 78.499219)scale(0.1 -0.1)">
       <use xlink:href="#DejaVuSans-48"/>
       <use x="63.623047" xlink:href="#DejaVuSans-46"/>
       <use x="95.410156" xlink:href="#DejaVuSans-48"/>
       <use x="159.033203" xlink:href="#DejaVuSans-48"/>
       <use x="222.65625" xlink:href="#DejaVuSans-48"/>
       <use x="286.279297" xlink:href="#DejaVuSans-48"/>
       <use x="349.902344" xlink:href="#DejaVuSans-53"/>
      </g>
     </g>
    </g>
    <g id="ytick_5">
     <g id="line2d_13">
      <g>
       <use style="stroke:#000000;stroke-width:0.8;" x="72" xlink:href="#md0726f375c" y="43.2"/>
      </g>
     </g>
     <g id="text_13">
      <!-- 0.00010 -->
      <g transform="translate(23.646875 46.999219)scale(0.1 -0.1)">
       <use xlink:href="#DejaVuSans-48"/>
       <use x="63.623047" xlink:href="#DejaVuSans-46"/>
       <use x="95.410156" xlink:href="#DejaVuSans-48"/>
       <use x="159.033203" xlink:href="#DejaVuSans-48"/>
       <use x="222.65625" xlink:href="#DejaVuSans-48"/>
       <use x="286.279297" xlink:href="#DejaVuSans-49"/>
       <use x="349.902344" xlink:href="#DejaVuSans-48"/>
      </g>
     </g>
    </g>
    <g id="text_14">
     <!-- $E-\langle E\rangle$ -->
     <g transform="translate(9.1875 122.6)rotate(-90)scale(0.1 -0.1)">
      <defs>
       <path d="M 16.890625 72.90625 
L 62.984375 72.90625 
L 61.375 64.59375 
L 25.09375 64.59375 
L 20.90625 43.015625 
L 55.71875 43.015625 
L 54.109375 34.71875 
L 19.28125 34.71875 
L 14.203125 8.296875 
L 51.3125 8.296875 
L 49.703125 0 
L 2.6875 0 
z
" id="DejaVuSans-Oblique-69"/>
       <path d="M 8.9375 31.34375 
L 22.703125 75.875 
L 31 75.875 
L 17.234375 31.34375 
L 31 -13.1875 
L 22.703125 -13.1875 
z
" id="DejaVuSans-10216"/>
       <path d="M 30.078125 31.34375 
L 16.3125 -13.1875 
L 8.015625 -13.1875 
L 21.78125 31.34375 
L 8.015625 75.875 
L 16.3125 75.875 
z
" id="DejaVuSans-10217"/>
      </defs>
      <use transform="translate(0 0.125)" xlink:href="#DejaVuSans-Oblique-69"/>
      <use transform="translate(82.666016 0.125)" xlink:href="#DejaVuSans-8722"/>
      <use transform="translate(185.9375 0.125)" xlink:href="#DejaVuSans-10216"/>
      <use transform="translate(224.951172 0.125)" xlink:href="#DejaVuSans-Oblique-69"/>
      <use transform="translate(288.134766 0.125)" xlink:href="#DejaVuSans-10217"/>
     </g>
    </g>
   </g>
   <g id="LineCollection_1">
    <path clip-path="url(#p4f7f57ddd2)" d="M 92.290909 110.271019 
L 92.290909 102.128981 
" style="fill:none;stroke:#1f77b4;stroke-width:1.5;"/>
    <path clip-path="url(#p4f7f57ddd2)" d="M 150.264935 111.318385 
L 150.264935 101.081615 
" style="fill:none;stroke:#1f77b4;stroke-width:1.5;"/>
    <path clip-path="url(#p4f7f57ddd2)" d="M 208.238961 116.228886 
L 208.238961 96.171114 
" style="fill:none;stroke:#1f77b4;stroke-width:1.5;"/>
    <path clip-path="url(#p4f7f57ddd2)" d="M 266.212987 115.714245 
L 266.212987 96.685755 
" style="fill:none;stroke:#1f77b4;stroke-width:1.5;"/>
    <path clip-path="url(#p4f7f57ddd2)" d="M 324.187013 124.110023 
L 324.187013 88.289977 
" style="fill:none;stroke:#1f77b4;stroke-width:1.5;"/>
    <path clip-path="url(#p4f7f57ddd2)" d="M 382.161039 114.275055 
L 382.161039 98.124945 
" style="fill:none;stroke:#1f77b4;stroke-width:1.5;"/>
    <path clip-path="url(#p4f7f57ddd2)" d="M 440.135065 115.656905 
L 440.135065 96.743095 
" style="fill:none;stroke:#1f77b4;stroke-width:1.5;"/>
    <path clip-path="url(#p4f7f57ddd2)" d="M 498.109091 115.10243 
L 498.109091 97.29757 
" style="fill:none;stroke:#1f77b4;stroke-width:1.5;"/>
   </g>
   <g id="line2d_14">
    <defs>
     <path d="M 0 3 
C 0.795609 3 1.55874 2.683901 2.12132 2.12132 
C 2.683901 1.55874 3 0.795609 3 0 
C 3 -0.795609 2.683901 -1.55874 2.12132 -2.12132 
C 1.55874 -2.683901 0.795609 -3 0 -3 
C -0.795609 -3 -1.55874 -2.683901 -2.12132 -2.12132 
C -2.683901 -1.55874 -3 -0.795609 -3 0 
C -3 0.795609 -2.683901 1.55874 -2.12132 2.12132 
C -1.55874 2.683901 -0.795609 3 0 3 
z
" id="m6c78eb18dd" style="stroke:#ff7f0e;"/>
    </defs>
    <g clip-path="url(#p4f7f57ddd2)">
     <use style="fill:#ff7f0e;stroke:#ff7f0e;" x="92.290909" xlink:href="#m6c78eb18dd" y="106.378875"/>
     <use style="fill:#ff7f0e;stroke:#ff7f0e;" x="92.290909" xlink:href="#m6c78eb18dd" y="108.987683"/>
     <use style="fill:#ff7f0e;stroke:#ff7f0e;" x="92.290909" xlink:href="#m6c78eb18dd" y="110.949649"/>
     <use style="fill:#ff7f0e;stroke:#ff7f0e;" x="92.290909" xlink:href="#m6c78eb18dd" y="98.97042"/>
     <use style="fill:#ff7f0e;stroke:#ff7f0e;" x="92.290909" xlink:href="#m6c78eb18dd" y="105.713374"/>
     <use style="fill:#ff7f0e;stroke:#ff7f0e;" x="150.264935" xlink:href="#m6c78eb18dd" y="115.721391"/>
     <use style="fill:#ff7f0e;stroke:#ff7f0e;" x="150.264935" xlink:href="#m6c78eb18dd" y="106.263539"/>
     <use style="fill:#ff7f0e;stroke:#ff7f0e;" x="150.264935" xlink:href="#m6c78eb18dd" y="105.132072"/>
     <use style="fill:#ff7f0e;stroke:#ff7f0e;" x="150.264935" xlink:href="#m6c78eb18dd" y="100.73355"/>
     <use style="fill:#ff7f0e;stroke:#ff7f0e;" x="150.264935" xlink:href="#m6c78eb18dd" y="103.149447"/>
     <use style="fill:#ff7f0e;stroke:#ff7f0e;" x="208.238961" xlink:href="#m6c78eb18dd" y="108.532711"/>
     <use style="fill:#ff7f0e;stroke:#ff7f0e;" x="208.238961" xlink:href="#m6c78eb18dd" y="90.890754"/>
     <use style="fill:#ff7f0e;stroke:#ff7f0e;" x="208.238961" xlink:href="#m6c78eb18dd" y="112.459304"/>
     <use style="fill:#ff7f0e;stroke:#ff7f0e;" x="208.238961" xlink:href="#m6c78eb18dd" y="119.592029"/>
     <use style="fill:#ff7f0e;stroke:#ff7f0e;" x="208.238961" xlink:href="#m6c78eb18dd" y="99.525202"/>
     <use style="fill:#ff7f0e;stroke:#ff7f0e;" x="266.212987" xlink:href="#m6c78eb18dd" y="98.429819"/>
     <use style="fill:#ff7f0e;stroke:#ff7f0e;" x="266.212987" xlink:href="#m6c78eb18dd" y="95.37136"/>
     <use style="fill:#ff7f0e;stroke:#ff7f0e;" x="266.212987" xlink:href="#m6c78eb18dd" y="122.347815"/>
     <use style="fill:#ff7f0e;stroke:#ff7f0e;" x="266.212987" xlink:href="#m6c78eb18dd" y="109.793357"/>
     <use style="fill:#ff7f0e;stroke:#ff7f0e;" x="266.212987" xlink:href="#m6c78eb18dd" y="105.057649"/>
     <use style="fill:#ff7f0e;stroke:#ff7f0e;" x="324.187013" xlink:href="#m6c78eb18dd" y="84.208459"/>
     <use style="fill:#ff7f0e;stroke:#ff7f0e;" x="324.187013" xlink:href="#m6c78eb18dd" y="133.411647"/>
     <use style="fill:#ff7f0e;stroke:#ff7f0e;" x="324.187013" xlink:href="#m6c78eb18dd" y="112.527696"/>
     <use style="fill:#ff7f0e;stroke:#ff7f0e;" x="324.187013" xlink:href="#m6c78eb18dd" y="88.742191"/>
     <use style="fill:#ff7f0e;stroke:#ff7f0e;" x="324.187013" xlink:href="#m6c78eb18dd" y="112.110007"/>
     <use style="fill:#ff7f0e;stroke:#ff7f0e;" x="382.161039" xlink:href="#m6c78eb18dd" y="112.508443"/>
     <use style="fill:#ff7f0e;stroke:#ff7f0e;" x="382.161039" xlink:href="#m6c78eb18dd" y="97.403942"/>
     <use style="fill:#ff7f0e;stroke:#ff7f0e;" x="382.161039" xlink:href="#m6c78eb18dd" y="116.0559"/>
     <use style="fill:#ff7f0e;stroke:#ff7f0e;" x="382.161039" xlink:href="#m6c78eb18dd" y="96.012746"/>
     <use style="fill:#ff7f0e;stroke:#ff7f0e;" x="382.161039" xlink:href="#m6c78eb18dd" y="109.018969"/>
     <use style="fill:#ff7f0e;stroke:#ff7f0e;" x="440.135065" xlink:href="#m6c78eb18dd" y="95.646085"/>
     <use style="fill:#ff7f0e;stroke:#ff7f0e;" x="440.135065" xlink:href="#m6c78eb18dd" y="98.353075"/>
     <use style="fill:#ff7f0e;stroke:#ff7f0e;" x="440.135065" xlink:href="#m6c78eb18dd" y="112.784156"/>
     <use style="fill:#ff7f0e;stroke:#ff7f0e;" x="440.135065" xlink:href="#m6c78eb18dd" y="103.135108"/>
     <use style="fill:#ff7f0e;stroke:#ff7f0e;" x="440.135065" xlink:href="#m6c78eb18dd" y="121.081575"/>
     <use style="fill:#ff7f0e;stroke:#ff7f0e;" x="498.109091" xlink:href="#m6c78eb18dd" y="111.559122"/>
     <use style="fill:#ff7f0e;stroke:#ff7f0e;" x="498.109091" xlink:href="#m6c78eb18dd" y="113.279126"/>
     <use style="fill:#ff7f0e;stroke:#ff7f0e;" x="498.109091" xlink:href="#m6c78eb18dd" y="107.847855"/>
     <use style="fill:#ff7f0e;stroke:#ff7f0e;" x="498.109091" xlink:href="#m6c78eb18dd" y="109.537399"/>
     <use style="fill:#ff7f0e;stroke:#ff7f0e;" x="498.109091" xlink:href="#m6c78eb18dd" y="88.776499"/>
    </g>
   </g>
   <g id="line2d_15">
    <path clip-path="url(#p4f7f57ddd2)" d="M 92.290909 106.2 
L 150.264935 106.2 
L 208.238961 106.2 
L 266.212987 106.2 
L 324.187013 106.2 
L 382.161039 106.2 
L 440.135065 106.2 
L 498.109091 106.2 
" style="fill:none;stroke:#1f77b4;stroke-linecap:square;stroke-width:1.5;"/>
   </g>
   <g id="patch_3">
    <path d="M 72 169.2 
L 72 43.2 
" style="fill:none;stroke:#000000;stroke-linecap:square;stroke-linejoin:miter;stroke-width:0.8;"/>
   </g>
   <g id="patch_4">
    <path d="M 518.4 169.2 
L 518.4 43.2 
" style="fill:none;stroke:#000000;stroke-linecap:square;stroke-linejoin:miter;stroke-width:0.8;"/>
   </g>
   <g id="patch_5">
    <path d="M 72 169.2 
L 518.4 169.2 
" style="fill:none;stroke:#000000;stroke-linecap:square;stroke-linejoin:miter;stroke-width:0.8;"/>
   </g>
   <g id="patch_6">
    <path d="M 72 43.2 
L 518.4 43.2 
" style="fill:none;stroke:#000000;stroke-linecap:square;stroke-linejoin:miter;stroke-width:0.8;"/>
   </g>
  </g>
  <g id="axes_2">
   <g id="patch_7">
    <path d="M 72 320.4 
L 518.4 320.4 
L 518.4 194.4 
L 72 194.4 
z
" style="fill:#ffffff;"/>
   </g>
   <g id="matplotlib.axis_3">
    <g id="xtick_9">
     <g id="line2d_16">
      <g>
       <use style="stroke:#000000;stroke-width:0.8;" x="92.290909" xlink:href="#mf37393b1fc" y="320.4"/>
      </g>
     </g>
     <g id="text_15">
      <!-- 3 -->
      <g transform="translate(89.109659 334.998438)scale(0.1 -0.1)">
       <use xlink:href="#DejaVuSans-51"/>
      </g>
     </g>
    </g>
    <g id="xtick_10">
     <g id="line2d_17">
      <g>
       <use style="stroke:#000000;stroke-width:0.8;" x="150.264935" xlink:href="#mf37393b1fc" y="320.4"/>
      </g>
     </g>
     <g id="text_16">
      <!-- 4 -->
      <g transform="translate(147.083685 334.998438)scale(0.1 -0.1)">
       <use xlink:href="#DejaVuSans-52"/>
      </g>
     </g>
    </g>
    <g id="xtick_11">
     <g id="line2d_18">
      <g>
       <use style="stroke:#000000;stroke-width:0.8;" x="208.238961" xlink:href="#mf37393b1fc" y="320.4"/>
      </g>
     </g>
     <g id="text_17">
      <!-- 5 -->
      <g transform="translate(205.057711 334.998438)scale(0.1 -0.1)">
       <use xlink:href="#DejaVuSans-53"/>
      </g>
     </g>
    </g>
    <g id="xtick_12">
     <g id="line2d_19">
      <g>
       <use style="stroke:#000000;stroke-width:0.8;" x="266.212987" xlink:href="#mf37393b1fc" y="320.4"/>
      </g>
     </g>
     <g id="text_18">
      <!-- 6 -->
      <g transform="translate(263.031737 334.998438)scale(0.1 -0.1)">
       <use xlink:href="#DejaVuSans-54"/>
      </g>
     </g>
    </g>
    <g id="xtick_13">
     <g id="line2d_20">
      <g>
       <use style="stroke:#000000;stroke-width:0.8;" x="324.187013" xlink:href="#mf37393b1fc" y="320.4"/>
      </g>
     </g>
     <g id="text_19">
      <!-- 7 -->
      <g transform="translate(321.005763 334.998438)scale(0.1 -0.1)">
       <use xlink:href="#DejaVuSans-55"/>
      </g>
     </g>
    </g>
    <g id="xtick_14">
     <g id="line2d_21">
      <g>
       <use style="stroke:#000000;stroke-width:0.8;" x="382.161039" xlink:href="#mf37393b1fc" y="320.4"/>
      </g>
     </g>
     <g id="text_20">
      <!-- 8 -->
      <g transform="translate(378.979789 334.998438)scale(0.1 -0.1)">
       <use xlink:href="#DejaVuSans-56"/>
      </g>
     </g>
    </g>
    <g id="xtick_15">
     <g id="line2d_22">
      <g>
       <use style="stroke:#000000;stroke-width:0.8;" x="440.135065" xlink:href="#mf37393b1fc" y="320.4"/>
      </g>
     </g>
     <g id="text_21">
      <!-- 9 -->
      <g transform="translate(436.953815 334.998438)scale(0.1 -0.1)">
       <use xlink:href="#DejaVuSans-57"/>
      </g>
     </g>
    </g>
    <g id="xtick_16">
     <g id="line2d_23">
      <g>
       <use style="stroke:#000000;stroke-width:0.8;" x="498.109091" xlink:href="#mf37393b1fc" y="320.4"/>
      </g>
     </g>
     <g id="text_22">
      <!-- 10 -->
      <g transform="translate(491.746591 334.998438)scale(0.1 -0.1)">
       <use xlink:href="#DejaVuSans-49"/>
       <use x="63.623047" xlink:href="#DejaVuSans-48"/>
      </g>
     </g>
    </g>
    <g id="text_23">
     <!-- $Z$ -->
     <g transform="translate(291.75 348.676562)scale(0.1 -0.1)">
      <defs>
       <path d="M 13.09375 72.90625 
L 70.3125 72.90625 
L 68.890625 65.375 
L 12.40625 8.296875 
L 58.890625 8.296875 
L 57.328125 0 
L -2.203125 0 
L -0.78125 7.515625 
L 55.71875 64.59375 
L 11.53125 64.59375 
z
" id="DejaVuSans-Oblique-90"/>
      </defs>
      <use transform="translate(0 0.09375)" xlink:href="#DejaVuSans-Oblique-90"/>
     </g>
    </g>
   </g>
   <g id="matplotlib.axis_4">
    <g id="ytick_6">
     <g id="line2d_24">
      <g>
       <use style="stroke:#000000;stroke-width:0.8;" x="72" xlink:href="#md0726f375c" y="320.4"/>
      </g>
     </g>
     <g id="text_24">
      <!-- −0.00010 -->
      <g transform="translate(15.267187 324.199219)scale(0.1 -0.1)">
       <use xlink:href="#DejaVuSans-8722"/>
       <use x="83.789062" xlink:href="#DejaVuSans-48"/>
       <use x="147.412109" xlink:href="#DejaVuSans-46"/>
       <use x="179.199219" xlink:href="#DejaVuSans-48"/>
       <use x="242.822266" xlink:href="#DejaVuSans-48"/>
       <use x="306.445312" xlink:href="#DejaVuSans-48"/>
       <use x="370.068359" xlink:href="#DejaVuSans-49"/>
       <use x="433.691406" xlink:href="#DejaVuSans-48"/>
      </g>
     </g>
    </g>
    <g id="ytick_7">
     <g id="line2d_25">
      <g>
       <use style="stroke:#000000;stroke-width:0.8;" x="72" xlink:href="#md0726f375c" y="288.9"/>
      </g>
     </g>
     <g id="text_25">
      <!-- −0.00005 -->
      <g transform="translate(15.267187 292.699219)scale(0.1 -0.1)">
       <use xlink:href="#DejaVuSans-8722"/>
       <use x="83.789062" xlink:href="#DejaVuSans-48"/>
       <use x="147.412109" xlink:href="#DejaVuSans-46"/>
       <use x="179.199219" xlink:href="#DejaVuSans-48"/>
       <use x="242.822266" xlink:href="#DejaVuSans-48"/>
       <use x="306.445312" xlink:href="#DejaVuSans-48"/>
       <use x="370.068359" xlink:href="#DejaVuSans-48"/>
       <use x="433.691406" xlink:href="#DejaVuSans-53"/>
      </g>
     </g>
    </g>
    <g id="ytick_8">
     <g id="line2d_26">
      <g>
       <use style="stroke:#000000;stroke-width:0.8;" x="72" xlink:href="#md0726f375c" y="257.4"/>
      </g>
     </g>
     <g id="text_26">
      <!-- 0.00000 -->
      <g transform="translate(23.646875 261.199219)scale(0.1 -0.1)">
       <use xlink:href="#DejaVuSans-48"/>
       <use x="63.623047" xlink:href="#DejaVuSans-46"/>
       <use x="95.410156" xlink:href="#DejaVuSans-48"/>
       <use x="159.033203" xlink:href="#DejaVuSans-48"/>
       <use x="222.65625" xlink:href="#DejaVuSans-48"/>
       <use x="286.279297" xlink:href="#DejaVuSans-48"/>
       <use x="349.902344" xlink:href="#DejaVuSans-48"/>
      </g>
     </g>
    </g>
    <g id="ytick_9">
     <g id="line2d_27">
      <g>
       <use style="stroke:#000000;stroke-width:0.8;" x="72" xlink:href="#md0726f375c" y="225.9"/>
      </g>
     </g>
     <g id="text_27">
      <!-- 0.00005 -->
      <g transform="translate(23.646875 229.699219)scale(0.1 -0.1)">
       <use xlink:href="#DejaVuSans-48"/>
       <use x="63.623047" xlink:href="#DejaVuSans-46"/>
       <use x="95.410156" xlink:href="#DejaVuSans-48"/>
       <use x="159.033203" xlink:href="#DejaVuSans-48"/>
       <use x="222.65625" xlink:href="#DejaVuSans-48"/>
       <use x="286.279297" xlink:href="#DejaVuSans-48"/>
       <use x="349.902344" xlink:href="#DejaVuSans-53"/>
      </g>
     </g>
    </g>
    <g id="ytick_10">
     <g id="line2d_28">
      <g>
       <use style="stroke:#000000;stroke-width:0.8;" x="72" xlink:href="#md0726f375c" y="194.4"/>
      </g>
     </g>
     <g id="text_28">
      <!-- 0.00010 -->
      <g transform="translate(23.646875 198.199219)scale(0.1 -0.1)">
       <use xlink:href="#DejaVuSans-48"/>
       <use x="63.623047" xlink:href="#DejaVuSans-46"/>
       <use x="95.410156" xlink:href="#DejaVuSans-48"/>
       <use x="159.033203" xlink:href="#DejaVuSans-48"/>
       <use x="222.65625" xlink:href="#DejaVuSans-48"/>
       <use x="286.279297" xlink:href="#DejaVuSans-49"/>
       <use x="349.902344" xlink:href="#DejaVuSans-48"/>
      </g>
     </g>
    </g>
    <g id="text_29">
     <!-- $E-\langle E\rangle$ -->
     <g transform="translate(9.1875 273.8)rotate(-90)scale(0.1 -0.1)">
      <use transform="translate(0 0.125)" xlink:href="#DejaVuSans-Oblique-69"/>
      <use transform="translate(82.666016 0.125)" xlink:href="#DejaVuSans-8722"/>
      <use transform="translate(185.9375 0.125)" xlink:href="#DejaVuSans-10216"/>
      <use transform="translate(224.951172 0.125)" xlink:href="#DejaVuSans-Oblique-69"/>
      <use transform="translate(288.134766 0.125)" xlink:href="#DejaVuSans-10217"/>
     </g>
    </g>
   </g>
   <g id="LineCollection_2">
    <path clip-path="url(#pfc6cf2e0a3)" d="M 92.290909 264.8697 
L 92.290909 249.9303 
" style="fill:none;stroke:#1f77b4;stroke-width:1.5;"/>
    <path clip-path="url(#pfc6cf2e0a3)" d="M 150.264935 260.351781 
L 150.264935 254.448219 
" style="fill:none;stroke:#1f77b4;stroke-width:1.5;"/>
    <path clip-path="url(#pfc6cf2e0a3)" d="M 208.238961 259.216457 
L 208.238961 255.583543 
" style="fill:none;stroke:#1f77b4;stroke-width:1.5;"/>
    <path clip-path="url(#pfc6cf2e0a3)" d="M 266.212987 259.565638 
L 266.212987 255.234362 
" style="fill:none;stroke:#1f77b4;stroke-width:1.5;"/>
    <path clip-path="url(#pfc6cf2e0a3)" d="M 324.187013 260.034375 
L 324.187013 254.765625 
" style="fill:none;stroke:#1f77b4;stroke-width:1.5;"/>
    <path clip-path="url(#pfc6cf2e0a3)" d="M 382.161039 263.938117 
L 382.161039 250.861883 
" style="fill:none;stroke:#1f77b4;stroke-width:1.5;"/>
    <path clip-path="url(#pfc6cf2e0a3)" d="M 440.135065 271.038439 
L 440.135065 243.761561 
" style="fill:none;stroke:#1f77b4;stroke-width:1.5;"/>
    <path clip-path="url(#pfc6cf2e0a3)" d="M 498.109091 274.413772 
L 498.109091 240.386228 
" style="fill:none;stroke:#1f77b4;stroke-width:1.5;"/>
   </g>
   <g id="line2d_29">
    <g clip-path="url(#pfc6cf2e0a3)">
     <use style="fill:#ff7f0e;stroke:#ff7f0e;" x="92.290909" xlink:href="#m6c78eb18dd" y="245.35687"/>
     <use style="fill:#ff7f0e;stroke:#ff7f0e;" x="92.290909" xlink:href="#m6c78eb18dd" y="262.905448"/>
     <use style="fill:#ff7f0e;stroke:#ff7f0e;" x="92.290909" xlink:href="#m6c78eb18dd" y="266.996888"/>
     <use style="fill:#ff7f0e;stroke:#ff7f0e;" x="92.290909" xlink:href="#m6c78eb18dd" y="254.018972"/>
     <use style="fill:#ff7f0e;stroke:#ff7f0e;" x="92.290909" xlink:href="#m6c78eb18dd" y="257.721823"/>
     <use style="fill:#ff7f0e;stroke:#ff7f0e;" x="150.264935" xlink:href="#m6c78eb18dd" y="259.023507"/>
     <use style="fill:#ff7f0e;stroke:#ff7f0e;" x="150.264935" xlink:href="#m6c78eb18dd" y="252.267178"/>
     <use style="fill:#ff7f0e;stroke:#ff7f0e;" x="150.264935" xlink:href="#m6c78eb18dd" y="257.857091"/>
     <use style="fill:#ff7f0e;stroke:#ff7f0e;" x="150.264935" xlink:href="#m6c78eb18dd" y="261.13025"/>
     <use style="fill:#ff7f0e;stroke:#ff7f0e;" x="150.264935" xlink:href="#m6c78eb18dd" y="256.721974"/>
     <use style="fill:#ff7f0e;stroke:#ff7f0e;" x="208.238961" xlink:href="#m6c78eb18dd" y="258.516134"/>
     <use style="fill:#ff7f0e;stroke:#ff7f0e;" x="208.238961" xlink:href="#m6c78eb18dd" y="258.540583"/>
     <use style="fill:#ff7f0e;stroke:#ff7f0e;" x="208.238961" xlink:href="#m6c78eb18dd" y="255.975317"/>
     <use style="fill:#ff7f0e;stroke:#ff7f0e;" x="208.238961" xlink:href="#m6c78eb18dd" y="254.578257"/>
     <use style="fill:#ff7f0e;stroke:#ff7f0e;" x="208.238961" xlink:href="#m6c78eb18dd" y="259.389709"/>
     <use style="fill:#ff7f0e;stroke:#ff7f0e;" x="266.212987" xlink:href="#m6c78eb18dd" y="259.69896"/>
     <use style="fill:#ff7f0e;stroke:#ff7f0e;" x="266.212987" xlink:href="#m6c78eb18dd" y="257.34221"/>
     <use style="fill:#ff7f0e;stroke:#ff7f0e;" x="266.212987" xlink:href="#m6c78eb18dd" y="259.379765"/>
     <use style="fill:#ff7f0e;stroke:#ff7f0e;" x="266.212987" xlink:href="#m6c78eb18dd" y="256.922594"/>
     <use style="fill:#ff7f0e;stroke:#ff7f0e;" x="266.212987" xlink:href="#m6c78eb18dd" y="253.656471"/>
     <use style="fill:#ff7f0e;stroke:#ff7f0e;" x="324.187013" xlink:href="#m6c78eb18dd" y="253.157765"/>
     <use style="fill:#ff7f0e;stroke:#ff7f0e;" x="324.187013" xlink:href="#m6c78eb18dd" y="258.753998"/>
     <use style="fill:#ff7f0e;stroke:#ff7f0e;" x="324.187013" xlink:href="#m6c78eb18dd" y="257.276558"/>
     <use style="fill:#ff7f0e;stroke:#ff7f0e;" x="324.187013" xlink:href="#m6c78eb18dd" y="256.634338"/>
     <use style="fill:#ff7f0e;stroke:#ff7f0e;" x="324.187013" xlink:href="#m6c78eb18dd" y="261.177341"/>
     <use style="fill:#ff7f0e;stroke:#ff7f0e;" x="382.161039" xlink:href="#m6c78eb18dd" y="262.569256"/>
     <use style="fill:#ff7f0e;stroke:#ff7f0e;" x="382.161039" xlink:href="#m6c78eb18dd" y="247.517245"/>
     <use style="fill:#ff7f0e;stroke:#ff7f0e;" x="382.161039" xlink:href="#m6c78eb18dd" y="259.382578"/>
     <use style="fill:#ff7f0e;stroke:#ff7f0e;" x="382.161039" xlink:href="#m6c78eb18dd" y="252.374637"/>
     <use style="fill:#ff7f0e;stroke:#ff7f0e;" x="382.161039" xlink:href="#m6c78eb18dd" y="265.156284"/>
     <use style="fill:#ff7f0e;stroke:#ff7f0e;" x="440.135065" xlink:href="#m6c78eb18dd" y="249.519601"/>
     <use style="fill:#ff7f0e;stroke:#ff7f0e;" x="440.135065" xlink:href="#m6c78eb18dd" y="236.802182"/>
     <use style="fill:#ff7f0e;stroke:#ff7f0e;" x="440.135065" xlink:href="#m6c78eb18dd" y="266.458171"/>
     <use style="fill:#ff7f0e;stroke:#ff7f0e;" x="440.135065" xlink:href="#m6c78eb18dd" y="257.808283"/>
     <use style="fill:#ff7f0e;stroke:#ff7f0e;" x="440.135065" xlink:href="#m6c78eb18dd" y="276.411764"/>
     <use style="fill:#ff7f0e;stroke:#ff7f0e;" x="498.109091" xlink:href="#m6c78eb18dd" y="259.074026"/>
     <use style="fill:#ff7f0e;stroke:#ff7f0e;" x="498.109091" xlink:href="#m6c78eb18dd" y="273.893732"/>
     <use style="fill:#ff7f0e;stroke:#ff7f0e;" x="498.109091" xlink:href="#m6c78eb18dd" y="264.662255"/>
     <use style="fill:#ff7f0e;stroke:#ff7f0e;" x="498.109091" xlink:href="#m6c78eb18dd" y="264.640111"/>
     <use style="fill:#ff7f0e;stroke:#ff7f0e;" x="498.109091" xlink:href="#m6c78eb18dd" y="224.729876"/>
    </g>
   </g>
   <g id="line2d_30">
    <defs>
     <path d="M 0 3 
C 0.795609 3 1.55874 2.683901 2.12132 2.12132 
C 2.683901 1.55874 3 0.795609 3 0 
C 3 -0.795609 2.683901 -1.55874 2.12132 -2.12132 
C 1.55874 -2.683901 0.795609 -3 0 -3 
C -0.795609 -3 -1.55874 -2.683901 -2.12132 -2.12132 
C -2.683901 -1.55874 -3 -0.795609 -3 0 
C -3 0.795609 -2.683901 1.55874 -2.12132 2.12132 
C -1.55874 2.683901 -0.795609 3 0 3 
z
" id="m6d72195f37" style="stroke:#2ca02c;"/>
    </defs>
    <g clip-path="url(#pfc6cf2e0a3)">
     <use style="fill:#2ca02c;stroke:#2ca02c;" x="92.290909" xlink:href="#m6d72195f37" y="256.811842"/>
     <use style="fill:#2ca02c;stroke:#2ca02c;" x="150.264935" xlink:href="#m6d72195f37" y="255.841622"/>
     <use style="fill:#2ca02c;stroke:#2ca02c;" x="208.238961" xlink:href="#m6d72195f37" y="244.653933"/>
     <use style="fill:#2ca02c;stroke:#2ca02c;" x="266.212987" xlink:href="#m6d72195f37" y="229.433383"/>
     <use style="fill:#2ca02c;stroke:#2ca02c;" x="324.187013" xlink:href="#m6d72195f37" y="201.930952"/>
     <use style="fill:#2ca02c;stroke:#2ca02c;" x="382.161039" xlink:href="#m6d72195f37" y="127.801542"/>
     <use style="fill:#2ca02c;stroke:#2ca02c;" x="440.135065" xlink:href="#m6d72195f37" y="103.453247"/>
     <use style="fill:#2ca02c;stroke:#2ca02c;" x="498.109091" xlink:href="#m6d72195f37" y="400.09518"/>
    </g>
   </g>
   <g id="line2d_31">
    <path clip-path="url(#pfc6cf2e0a3)" d="M 92.290909 257.4 
L 150.264935 257.4 
L 208.238961 257.4 
L 266.212987 257.4 
L 324.187013 257.4 
L 382.161039 257.4 
L 440.135065 257.4 
L 498.109091 257.4 
" style="fill:none;stroke:#1f77b4;stroke-linecap:square;stroke-width:1.5;"/>
   </g>
   <g id="patch_8">
    <path d="M 72 320.4 
L 72 194.4 
" style="fill:none;stroke:#000000;stroke-linecap:square;stroke-linejoin:miter;stroke-width:0.8;"/>
   </g>
   <g id="patch_9">
    <path d="M 518.4 320.4 
L 518.4 194.4 
" style="fill:none;stroke:#000000;stroke-linecap:square;stroke-linejoin:miter;stroke-width:0.8;"/>
   </g>
   <g id="patch_10">
    <path d="M 72 320.4 
L 518.4 320.4 
" style="fill:none;stroke:#000000;stroke-linecap:square;stroke-linejoin:miter;stroke-width:0.8;"/>
   </g>
   <g id="patch_11">
    <path d="M 72 194.4 
L 518.4 194.4 
" style="fill:none;stroke:#000000;stroke-linecap:square;stroke-linejoin:miter;stroke-width:0.8;"/>
   </g>
  </g>
 </g>
 <defs>
  <clipPath id="p4f7f57ddd2">
   <rect height="126" width="446.4" x="72" y="43.2"/>
  </clipPath>
  <clipPath id="pfc6cf2e0a3">
   <rect height="126" width="446.4" x="72" y="194.4"/>
  </clipPath>
 </defs>
</svg>
